# xmcd
#
# Track frame offsets:
#	150
#	11938
#	28383
#	48193
#	72142
#	82126
#	94298
#	107401
#	123839
#	133991
#	144782
#
# Disc length: 2443 seconds
#
# Revision: 0
# Processed by: cddbd v1.5.2PL0 Copyright (c) Steve Scherf et al.
# Submitted via: audiograbber 1.83.01
#
DISCID=9709890b
DTITLE=Mountain Heart - The Journey
DYEAR=2001
DGENRE=Bluegrass
TTITLE0=Wings Of Love
TTITLE1=The Scars In His Hands
TTITLE2=John 4:22
TTITLE3=The Hill Lone And Gray
TTITLE4=What A Time In Heaven
TTITLE5=The Gospel Train
TTITLE6=There's A Higher Power
TTITLE7=He Is I Am
TTITLE8=Travelin' Shoes
TTITLE9=I'll Sail Away
TTITLE10=Not Long For This Earth
EXTD=
EXTT0=
EXTT1=
EXTT2=
EXTT3=
EXTT4=
EXTT5=
EXTT6=
EXTT7=
EXTT8=
EXTT9=
EXTT10=
PLAYORDER=
